<svg width="148" height="32" viewBox="0 0 148 32" fill="none" xmlns="http://www.w3.org/2000/svg">
<path d="M4.11445 30.5153V13.3644H0.761963V8.92358H4.11445V7.66027C4.11445 3.48191 7.16074 0.47937 12.0372 0.47937H14.5184V4.74522H12.2542C9.99005 4.74522 8.94546 5.83355 8.94546 7.83524V8.92358H14.8666V13.3644H8.94546V30.5153H4.11445Z" fill="#6E00BE"/>
<path d="M15.4318 19.7194C15.4318 13.4082 20.4377 8.48792 26.8365 8.48792C33.2353 8.48792 38.1975 13.4064 38.1975 19.7194C38.1975 26.0325 33.1915 30.951 26.8365 30.951C20.4815 30.951 15.4318 26.0325 15.4318 19.7194ZM33.3665 19.7194C33.3665 15.8455 30.6247 13.0162 26.8365 13.0162C23.0483 13.0162 20.2628 15.8455 20.2628 19.7194C20.2628 23.5934 23.0483 26.4227 26.8365 26.4227C30.6247 26.4227 33.3665 23.5934 33.3665 19.7194Z" fill="#6E00BE"/>
<path d="M73.5211 30.5153V8.9236H78.1352V11.144C79.528 9.49051 81.7484 8.48792 84.4902 8.48792C89.8006 8.48792 93.5888 12.2761 93.5888 18.2392V30.5153H88.7578V18.6749C88.7578 15.1491 86.8418 13.06 83.7081 13.06C80.5743 13.06 78.3539 15.2366 78.3539 18.6749V30.5153H73.5211Z" fill="#6E00BE"/>
<path d="M96.5493 19.7194C96.5493 13.4081 101.251 8.4879 107.433 8.4879C110.349 8.4879 112.831 9.61997 114.44 11.5779V0.47937H119.273V30.5153H114.659V27.6422C113.091 29.7314 110.481 30.951 107.433 30.951C101.251 30.951 96.5493 26.0325 96.5493 19.7194ZM114.484 19.7194C114.484 15.8455 111.742 13.0162 107.954 13.0162C104.166 13.0162 101.38 15.8455 101.38 19.7194C101.38 23.5933 104.166 26.3789 107.954 26.3789C111.742 26.3789 114.484 23.5933 114.484 19.7194Z" fill="#6E00BE"/>
<path d="M123.625 2.78557C123.625 1.17582 124.8 0 126.41 0C128.02 0 129.196 1.17582 129.196 2.78557C129.196 4.39533 128.02 5.52741 126.41 5.52741C124.8 5.52741 123.625 4.35158 123.625 2.78557ZM123.973 30.5153V8.92364H128.806V30.5153H123.973Z" fill="#6E00BE"/>
<path d="M142.387 30.5154C137.469 30.5154 135.117 28.3825 135.117 23.8979V13.3628H131.547V8.92193H134.029C134.681 8.92193 135.117 8.48625 135.117 7.70237V3.52576H139.95V8.92368H145.696V13.3645H139.95V23.4202C139.95 25.1175 140.777 25.9888 142.735 25.9888H145.696V30.5154H142.387Z" fill="#6E00BE"/>
<path d="M40.0067 11.361C39.9962 11.5167 39.9734 11.8789 39.9524 12.3899C39.9314 12.9008 39.9139 13.5657 39.9139 14.3391C39.9139 15.6829 39.9682 17.3556 40.1624 19.1316C40.3076 20.4649 40.5316 21.8559 40.8745 23.2137C41.1318 24.2321 41.4537 25.2329 41.8649 26.1778C42.4808 27.5933 43.2927 28.8881 44.395 29.8994C44.9444 30.4034 45.5673 30.8338 46.2637 31.1592C46.9601 31.4864 47.7265 31.7069 48.5559 31.8031L48.6154 31.8084C48.9023 31.8241 49.1875 31.8311 49.471 31.8311C51.5707 31.8311 53.5304 31.4077 55.3273 30.6693C56.9003 30.0254 58.3526 29.1436 59.6859 28.1025C62.0201 26.2792 63.9955 23.9713 65.6613 21.541C68.1564 17.8945 69.9533 13.9699 71.1362 10.9463C72.3172 7.9228 72.8806 5.80387 72.8876 5.77763C73.0259 5.25796 72.7162 4.72254 72.1948 4.58431C71.6751 4.44608 71.1397 4.75578 71.0014 5.2772C70.9944 5.30345 70.571 6.88346 69.7014 9.22985C68.3978 12.7486 66.0777 17.9943 62.6937 22.2916C61.0035 24.4403 59.0508 26.3492 56.8514 27.707C55.7508 28.3859 54.5907 28.9301 53.3624 29.3028C52.1358 29.6772 50.841 29.8819 49.4692 29.8819C49.2225 29.8819 48.9723 29.8749 48.7186 29.8609L48.6661 30.8338L48.7781 29.8662C48.0327 29.7787 47.3888 29.567 46.8114 29.2538C46.3057 28.9791 45.8508 28.6239 45.4343 28.1952C44.7065 27.4446 44.1028 26.4612 43.6199 25.3326C42.8937 23.6389 42.4458 21.6285 42.1886 19.674C41.9314 17.7196 41.8596 15.8211 41.8596 14.3391C41.8596 13.5972 41.8771 12.9585 41.8964 12.4704C41.9156 11.9804 41.9384 11.6427 41.9489 11.4888C41.9839 10.9516 41.5762 10.4879 41.039 10.4529C40.5019 10.4179 40.0382 10.8256 40.0032 11.3628L40.0067 11.361Z" fill="#E119A0"/>
<path d="M39.9647 11.2807C39.9594 11.3139 39.7617 12.7277 39.7617 14.7136C39.7617 15.8632 39.8282 17.2052 40.0434 18.5893C40.2044 19.6269 40.4494 20.6872 40.8203 21.7091C41.0985 22.4754 41.4467 23.2191 41.8894 23.9102C42.5508 24.9461 43.4309 25.8682 44.57 26.5208C45.7073 27.1752 47.0913 27.5444 48.6941 27.5427C50.3004 27.5427 51.8209 27.2102 53.2294 26.6398C55.7 25.6372 57.833 23.9207 59.6597 21.9435C62.398 18.9742 64.4644 15.396 65.8642 12.551C67.2623 9.70589 67.9884 7.59397 67.9989 7.56597C68.1826 7.03055 67.8974 6.44614 67.362 6.26242C66.8266 6.0787 66.2422 6.3639 66.0584 6.89932L66.2159 6.95356L66.0584 6.89932L66.2159 6.95356L66.0584 6.89932C66.0532 6.91507 65.6403 8.11189 64.8459 9.89136C63.6578 12.5597 61.6019 16.5403 58.8286 19.7896C57.4445 21.4151 55.882 22.8534 54.1865 23.87C53.3379 24.3792 52.4578 24.7833 51.5427 25.0615C50.6293 25.3398 49.6827 25.4902 48.6941 25.4902C47.9277 25.4902 47.2628 25.3887 46.6819 25.2103C46.1727 25.0545 45.7266 24.8411 45.3259 24.5769C44.626 24.1167 44.0573 23.5008 43.5901 22.7589C42.8902 21.6496 42.4336 20.2568 42.1676 18.8272C41.8981 17.3995 41.8159 15.9419 41.8159 14.7136C41.8159 13.7898 41.8631 12.9936 41.9086 12.4337C41.9314 12.1538 41.9541 11.9333 41.9716 11.7846C41.9804 11.7093 41.9874 11.6533 41.9926 11.6166C41.9944 11.5974 41.9961 11.5851 41.9979 11.5764V11.5676L41.6532 11.5204L41.9979 11.5694L41.6532 11.5204L41.9979 11.5694C42.0766 11.0077 41.6864 10.4898 41.1248 10.4093C40.5631 10.3288 40.0452 10.7207 39.9647 11.2824V11.2807Z" fill="#00AEFF"/>
<path d="M39.9541 11.417V11.4415C39.9541 11.5937 39.9611 12.3654 40.0906 13.4485C40.1886 14.2621 40.3548 15.2507 40.647 16.2935C40.8658 17.0739 41.1545 17.884 41.5429 18.6714C41.8334 19.2611 42.1816 19.8385 42.598 20.3756C43.2244 21.1805 44.0135 21.8997 44.9951 22.4123C45.975 22.925 47.1385 23.2225 48.4578 23.2207C49.5882 23.2207 50.6608 22.9967 51.6529 22.6136C53.3921 21.9417 54.8899 20.7973 56.1689 19.4903C58.0866 17.5253 59.5302 15.1772 60.5118 13.312C61.4934 11.4468 62.006 10.0627 62.0165 10.033C62.2142 9.50106 61.943 8.9114 61.4111 8.71368C60.8792 8.51596 60.2895 8.78716 60.0918 9.31908C60.0831 9.34533 59.7909 10.124 59.2397 11.27C58.4156 12.99 57.0018 15.5359 55.1331 17.5936C54.2005 18.6224 53.1559 19.527 52.0378 20.1604C50.9162 20.7956 49.7334 21.1648 48.4561 21.1648C47.6512 21.1648 46.9758 21.0265 46.3914 20.7956C45.8805 20.5926 45.4343 20.3162 45.0354 19.9767C44.339 19.3853 43.7826 18.5927 43.3539 17.7091C42.71 16.3845 42.36 14.8675 42.1868 13.6567C42.0118 12.4459 42.0048 11.5447 42.0048 11.4415V11.431C42.0083 10.8641 41.5534 10.4022 40.9865 10.3969C40.4196 10.3917 39.9576 10.8483 39.9524 11.4153L39.9541 11.417Z" fill="#FFA000"/>
</svg>
